<?xml version="1.0"?>
<svg version="1.1" xmlns="http://www.w3.org/2000/svg" width="180" height="73" style=""><path fill="#061b80" d="M16.4,60.5l0-3.4l3-1.2l0-18.8l-3-1.2l0-3.4l9.6-0.2l10.8,18.48l0-13.68l-2.92-1.2l0-3.4l11.4-0.2l0,3.6l-3,1.2l0,23.4l-6.68,0l-10.72-18.12l0,13.52l3.12,1.2l0,3.4l-11.6,0z M58.1404,55.9l0-18.8l-3.8,0l-1,3.8l-3.68,0l0-8.6l23.2,0l0,8.6l-3.72,0l-1-3.8l-3.8,0l0,18.8l3.8,1.2l0,3.4l-13.8,0l0-3.4z"/><path fill="#1f29bf" d="M111.8408,52.94q0,1.44-0.64,2.72q-1.36,2.88-5.2,4.8t-8,1.92q-6.32,0-8.6-4.32q-4.12,3.44-5.88,3.44q-0.32,0-0.56-0.12q-1.2-0.64-1.2-2.76t1.76-5.2t3.08-3.64q0.6-0.2,0.92-0.2q1.16,0,1.76,1.92l1.2,3.84q1.16-1.24,3.16-3.96l3.56-4.8q6.56-8.52,8.6-9.32q0.72-0.28,1.48-0.28t1.26,0.32t0.5,0.8q0,0.72-1.16,0.84q-1.2,0.68-4.58,3.98t-4.02,4.18q-4.48,6.24-8.28,9.6q2.44,4.84,7.32,4.84q2.96,0,5.88-1.86t4.36-4.58q0.64-1.16,0.64-2.6t-1.14-2.74t-2.86-1.9q-0.8-0.12-2.56-0.34t-1.76-0.74q0-0.2,0.16-0.36q0.48-0.56,1.24-0.56q0.44,0,0.86,0.16t0.66,0.24t0.56,0.2q0.88,0.08,1.52,0.08q2.64,0,4.8-0.84q2.76-1.08,3.52-3.24q0.48-1.4,0.48-2.52q0-2.76-2.68-4.12q-2.32-1.2-6.36-1.2q-6.36,0-11.4,2.4q-2.56,1.2-4.86,3.56t-2.3,4.04q0,1.16,0.6,1.92q0.24,0.32,0.84,0.8q0.2,0.12-0.24,0.12q-2.48-0.56-2.48-3.32t2.8-5.2q2.08-1.8,4.68-2.92q5.4-2.32,12.28-2.32q4.92,0,7.84,1.44q3.4,1.6,3.4,4.84q0,1.28-0.52,2.6q-0.84,2.4-4.36,3.64q-2.64,0.92-5.68,0.96q2.36,0.12,3.98,1.74t1.62,4.02z M86.2808,51.46q-0.04,0-0.2,0.08q-2.96,4.28-2.96,6.88q0,1.08,0.52,1.96q0.12,0.2,0.4,0.2q1.28,0,4.92-3.64l-0.12-0.16q-1.6-5.32-2.56-5.32z M118.4476,59.7q1.32,0,3.4-1.4t4.04-3.8q0.48-0.64,0.76-0.64t0.28,0.24t-1.64,2.08q-4,4.4-6.68,4.4q-1.32,0-2.24-0.62t-0.92-1.92t0.68-3.02q1.16-2.72,3.72-6.84q4.68-7.6,6.64-7.6q0.4,0,0.82,0.3t0.46,0.66q-0.92,1.24-3.54,4.76t-3.62,5.06t-1.5,2.3t-0.74,1.18t-0.56,1.1q-0.68,1.36-0.68,2.56t1.32,1.2z M137.4944,52.02q0,1.4-2.68,4.68q-3.16,3.88-5.4,3.88l-0.64,0q-1.04,0-1.64-1.08q-0.48-0.76-0.48-1.68q0-2.4,3.5-6.74t5.66-4.34q2.04,0,2.04,2.16q0,0.56-0.2,1.44q0.04,0.12,0.76,0.12t2.2-0.76q-0.04,0.68-3.16,1.96q0.04,0.16,0.04,0.36z M134.8944,49.94q-1.36,0-3.86,3.2t-2.5,4.72t0.96,1.52q1.72,0,4.36-3.12t2.64-4.48q-0.64-0.36-1.6-1.84z M153.4212,48.3l0.56-0.12q0.52,0,0.82,0.32t0.3,0.5t-0.04,0.4t-1.16,2.02q-1.4,2.44-2.32,4.12q-3.24,6.04-4.96,8.28q-3.68,4.88-7,4.88q-1.16,0-2.02-0.98t-0.9-2.18q0.12-0.48,0.36-0.48q0.12,0,0.2,0.28q0.2,1.04,0.76,1.6t1.12,0.56q2.28,0,4.88-3q1.72-2,3.8-5.84l2-3.96l-3,3.04q-2.88,2.76-3.94,2.76t-2.02-0.72q-1.08-0.8-1.08-2.12q0-2.92,4.1-6.96t7.46-4.04q1.36,0,1.76,0.88q0.12,0.32,0.2,0.54t0.12,0.22z M141.4612,58.14q0,1.44,1,1.44q2.32,0,6.32-5.08l4.24-5.84q-0.24-0.56-1-0.56q-2.48,0-6.52,3.82t-4.04,6.22z M163.988,59.9q-1.16,0.68-2.86,0.68t-2.6-1.12t-1.54-3.56q-0.72,0.72-1,0.72q-0.2,0-0.2-0.28t0.2-0.48q1.32-1.64,4.48-4.72l5.04-4.72q2.16-2.04,2.56-2.04q1.28,0,1.28,0.96q0,0.48-0.38,0.94t-0.56,0.72t-0.38,0.5q-0.72,1.24-1.46,5.12t-1.14,5.4q3.32-0.04,6.84-4.32q0.4-0.4,0.6-0.4t0.2,0.26t-0.36,0.7q-2.32,2.72-4.32,3.8q-1.2,0.6-3.12,1z M158.588,55.46q0,1.36,0.9,2.22t2.02,0.86t1.72-0.44q0.8-0.44,1.58-3.68t0.94-5.72l0.16-1.36q-2.2,1.64-4.7,4.24t-2.58,3.44q-0.04,0.24-0.04,0.44z"/></svg>
