<?xml version="1.0"?>
<svg version="1.1" xmlns="http://www.w3.org/2000/svg" width="254" height="105" style=""><path fill="#061b80" d="M17.1,88.5l0-5.1l4.5-1.8l0-28.2l-4.5-1.8l0-5.1l14.4-0.3l16.2,27.72l0-20.52l-4.38-1.8l0-5.1l17.1-0.3l0,5.4l-4.5,1.8l0,35.1l-10.02,0l-16.08-27.18l0,20.28l4.68,1.8l0,5.1l-17.4,0z M79.7106,81.6l0-28.2l-5.7,0l-1.5,5.7l-5.52,0l0-12.9l34.8,0l0,12.9l-5.58,0l-1.5-5.7l-5.7,0l0,28.2l5.7,1.8l0,5.1l-20.7,0l0-5.1z"/><path fill="#1f29bf" d="M157.7612,77.16q0,2.16-0.96,4.08q-2.04,4.32-7.8,7.2t-12,2.88q-9.48,0-12.9-6.48q-6.18,5.16-8.82,5.16q-0.48,0-0.84-0.18q-1.8-0.96-1.8-4.14t2.64-7.8t4.62-5.46q0.9-0.3,1.38-0.3q1.74,0,2.64,2.88l1.8,5.76q1.74-1.86,4.74-5.94l5.34-7.2q9.84-12.78,12.9-13.98q1.08-0.42,2.22-0.42t1.89,0.48t0.75,1.2q0,1.08-1.74,1.26q-1.8,1.02-6.87,5.97t-6.03,6.27q-6.72,9.36-12.42,14.4q3.66,7.26,10.98,7.26q4.44,0,8.82-2.79t6.54-6.87q0.96-1.74,0.96-3.9t-1.71-4.11t-4.29-2.85q-1.2-0.18-3.84-0.51t-2.64-1.11q0-0.3,0.24-0.54q0.72-0.84,1.86-0.84q0.66,0,1.29,0.24t0.99,0.36t0.84,0.3q1.32,0.12,2.28,0.12q3.96,0,7.2-1.26q4.14-1.62,5.28-4.86q0.72-2.1,0.72-3.78q0-4.14-4.02-6.18q-3.48-1.8-9.54-1.8q-9.54,0-17.1,3.6q-3.84,1.8-7.29,5.34t-3.45,6.06q0,1.74,0.9,2.88q0.36,0.48,1.26,1.2q0.3,0.18-0.36,0.18q-3.72-0.84-3.72-4.98t4.2-7.8q3.12-2.7,7.02-4.38q8.1-3.48,18.42-3.48q7.38,0,11.76,2.16q5.1,2.4,5.1,7.26q0,1.92-0.78,3.9q-1.26,3.6-6.54,5.46q-3.96,1.38-8.52,1.44q3.54,0.18,5.97,2.61t2.43,6.03z M119.4212,74.94q-0.06,0-0.3,0.12q-4.44,6.42-4.44,10.32q0,1.62,0.78,2.94q0.18,0.3,0.6,0.3q1.92,0,7.38-5.46l-0.18-0.24q-2.4-7.98-3.84-7.98z M167.6714,87.3q1.98,0,5.1-2.1t6.06-5.7q0.72-0.96,1.14-0.96t0.42,0.36t-2.46,3.12q-6,6.6-10.02,6.6q-1.98,0-3.36-0.93t-1.38-2.88t1.02-4.53q1.74-4.08,5.58-10.26q7.02-11.4,9.96-11.4q0.6,0,1.23,0.45t0.69,0.99q-1.38,1.86-5.31,7.14t-5.43,7.59t-2.25,3.45t-1.11,1.77t-0.84,1.65q-1.02,2.04-1.02,3.84t1.98,1.8z M196.2416,75.78q0,2.1-4.02,7.02q-4.74,5.82-8.1,5.82l-0.96,0q-1.56,0-2.46-1.62q-0.72-1.14-0.72-2.52q0-3.6,5.25-10.11t8.49-6.51q3.06,0,3.06,3.24q0,0.84-0.3,2.16q0.06,0.18,1.14,0.18t3.3-1.14q-0.06,1.02-4.74,2.94q0.06,0.24,0.06,0.54z M192.3416,72.66q-2.04,0-5.79,4.8t-3.75,7.08t1.44,2.28q2.58,0,6.54-4.68t3.96-6.72q-0.96-0.54-2.4-2.76z M220.1318,70.2l0.84-0.18q0.78,0,1.23,0.48t0.45,0.75t-0.06,0.6t-1.74,3.03q-2.1,3.66-3.48,6.18q-4.86,9.06-7.44,12.42q-5.52,7.32-10.5,7.32q-1.74,0-3.03-1.47t-1.35-3.27q0.18-0.72,0.54-0.72q0.18,0,0.3,0.42q0.3,1.56,1.14,2.4t1.68,0.84q3.42,0,7.32-4.5q2.58-3,5.7-8.76l3-5.94l-4.5,4.56q-4.32,4.14-5.91,4.14t-3.03-1.08q-1.62-1.2-1.62-3.18q0-4.38,6.15-10.44t11.19-6.06q2.04,0,2.64,1.32q0.18,0.48,0.3,0.81t0.18,0.33z M202.1918,84.96q0,2.16,1.5,2.16q3.48,0,9.48-7.62l6.36-8.76q-0.36-0.84-1.5-0.84q-3.72,0-9.78,5.73t-6.06,9.33z M235.982,87.6q-1.74,1.02-4.29,1.02t-3.9-1.68t-2.31-5.34q-1.08,1.08-1.5,1.08q-0.3,0-0.3-0.42t0.3-0.72q1.98-2.46,6.72-7.08l7.56-7.08q3.24-3.06,3.84-3.06q1.92,0,1.92,1.44q0,0.72-0.57,1.41t-0.84,1.08t-0.57,0.75q-1.08,1.86-2.19,7.68t-1.71,8.1q4.98-0.06,10.26-6.48q0.6-0.6,0.9-0.6t0.3,0.39t-0.54,1.05q-3.48,4.08-6.48,5.7q-1.8,0.9-4.68,1.5z M227.882,80.94q0,2.04,1.35,3.33t3.03,1.29t2.58-0.66q1.2-0.66,2.37-5.52t1.41-8.58l0.24-2.04q-3.3,2.46-7.05,6.36t-3.87,5.16q-0.06,0.36-0.06,0.66z"/></svg>
